<svg width="376" height="318" viewBox="0 0 376 318" fill="none" xmlns="http://www.w3.org/2000/svg">
<path d="M123.633 77.6359C122.269 74.448 124.743 70.9864 128.13 71.16L128.461 71.1884L326.672 94.913C330.226 95.3384 331.988 99.4524 329.842 102.318L210.191 262.111C208.045 264.977 203.602 264.444 202.193 261.154L185.854 222.985L77.1522 282.856C74.7437 284.183 71.7163 283.141 70.6342 280.614L17.9576 157.56C16.9094 155.111 18.1308 152.304 20.5923 151.379L20.8339 151.296L139.186 113.967L123.633 77.6359Z" fill="white" stroke="#1E1E1E" stroke-width="7.3"/>
<path opacity="0.9" d="M288.626 111.813C291.683 112.179 293.198 115.717 291.352 118.182L214.579 220.712C212.733 223.176 208.911 222.719 207.7 219.888L197.919 197.04C196.988 194.865 194.384 193.969 192.312 195.11L86.8502 253.197C84.7783 254.338 82.174 253.442 81.2432 251.267L46.5145 170.14C45.5836 167.966 46.7328 165.463 48.9886 164.751L163.813 128.537C166.069 127.825 167.218 125.322 166.287 123.148L157.292 102.136C156.081 99.3049 158.388 96.2239 161.445 96.5898L288.626 111.813Z" fill="#EBCF2C"/>
</svg>
