<svg width="576" height="285" viewBox="0 0 576 285" fill="none" xmlns="http://www.w3.org/2000/svg">
<rect x="101" width="8" height="162" rx="4" fill="#1E1E1E"/>
<rect x="447" width="8" height="162" rx="4" fill="#1E1E1E"/>
<rect y="157.022" width="571.038" height="127.698" rx="24" transform="rotate(-2.09 0 157.022)" fill="#1E1E1E"/>
<path d="M40.9797 219.561C40.0724 219.594 39.2719 219.307 38.5783 218.701C37.9226 218.053 37.5783 217.276 37.5452 216.368L36.9902 201.161C36.9571 200.254 37.2439 199.454 37.8506 198.76C38.4967 198.065 39.2734 197.701 40.1807 197.668L79.0561 196.249C79.9634 196.216 80.7646 196.522 81.4597 197.169C82.1548 197.815 82.5189 198.591 82.552 199.499L82.891 208.789C83.605 228.354 73.093 239.581 51.3548 242.468C50.411 242.581 49.5535 242.356 48.7824 241.791C48.0113 241.227 47.5296 240.474 47.3373 239.533L47.2543 238.885C47.0649 238.022 47.2333 237.226 47.7597 236.496C48.324 235.725 49.0584 235.283 49.9628 235.171C59.1195 233.889 65.6173 231.183 69.4561 227.054C73.2949 222.924 75.071 216.934 74.7845 209.084L74.6161 204.469C74.6032 204.114 74.4192 203.943 74.0641 203.956L45.4845 204.999C45.1689 205.01 45.0176 205.194 45.0306 205.549L45.4149 216.081C45.448 216.988 45.1415 217.79 44.4954 218.485C43.8478 219.14 43.0704 219.485 42.1631 219.518L40.9797 219.561ZM97.4039 207.074C96.4966 207.107 95.6954 206.801 95.0003 206.154C94.3447 205.507 94.0003 204.729 93.9672 203.822L93.9608 203.645C93.9276 202.737 94.2144 201.937 94.8211 201.243C95.4673 200.548 96.244 200.184 97.1513 200.151L122.536 199.225C122.851 199.213 123.003 199.03 122.99 198.675L122.808 193.704C122.775 192.797 123.082 191.996 123.728 191.301C124.374 190.606 125.151 190.242 126.058 190.209L127.005 190.174C127.912 190.141 128.713 190.447 129.408 191.094C130.103 191.74 130.467 192.516 130.5 193.424L130.682 198.394C130.695 198.749 130.879 198.92 131.234 198.907L139.399 198.609C140.307 198.576 141.088 198.883 141.744 199.531C142.439 200.177 142.803 200.954 142.836 201.861L142.843 202.038C142.876 202.946 142.569 203.747 141.923 204.442C141.316 205.136 140.559 205.499 139.652 205.532L131.486 205.83C131.131 205.843 130.96 206.007 130.971 206.323L131.818 229.518C131.903 231.845 131.887 233.584 131.771 234.734C131.655 235.883 131.216 236.847 130.455 237.626C129.732 238.403 128.802 238.891 127.664 239.09C126.565 239.288 124.852 239.43 122.525 239.515C120.986 239.571 118.793 239.552 115.946 239.459C114.998 239.454 114.194 239.088 113.536 238.362C112.918 237.673 112.632 236.854 112.676 235.905L112.724 235.607C112.77 234.696 113.118 233.933 113.767 233.317C114.416 232.701 115.195 232.416 116.105 232.461C118.677 232.565 120.455 232.599 121.442 232.563C122.664 232.518 123.428 232.332 123.732 232.005C124.036 231.678 124.166 230.903 124.121 229.68L123.555 214.178C123.552 214.099 123.491 214.042 123.371 214.007C123.29 213.931 123.23 213.913 123.192 213.954C116.181 221.004 108.895 227.017 101.335 231.993C100.563 232.495 99.7196 232.645 98.8036 232.441C97.9272 232.236 97.2378 231.748 96.7357 230.976L96.4839 230.57C96.0212 229.797 95.8923 228.973 96.0973 228.096C96.3009 227.18 96.7885 226.471 97.5602 225.969C105.74 220.654 113.463 214.171 120.728 206.519C120.918 206.315 120.855 206.218 120.54 206.23L97.4039 207.074ZM155.829 226.687C154.923 226.759 154.104 226.493 153.371 225.888C152.677 225.281 152.294 224.525 152.221 223.619L152.206 223.204C152.134 222.299 152.401 221.499 153.007 220.805C153.614 220.112 154.37 219.729 155.276 219.656L172.178 218.447C172.454 218.437 172.585 218.254 172.572 217.899L171.211 206.573C171.2 206.257 171.016 206.106 170.661 206.119L157.483 207.074C156.577 207.146 155.758 206.88 155.025 206.275C154.33 205.629 153.946 204.853 153.873 203.947L153.858 203.532C153.786 202.627 154.053 201.827 154.66 201.133C155.266 200.44 156.022 200.057 156.928 199.984L169.751 199.042C170.067 199.03 170.218 198.847 170.205 198.492L169.529 192.947C169.417 192.043 169.644 191.245 170.212 190.552C170.817 189.819 171.572 189.397 172.476 189.285L174.069 189.108C174.974 188.996 175.793 189.243 176.526 189.848C177.257 190.414 177.679 191.149 177.791 192.053L178.537 197.892C178.55 198.247 178.734 198.418 179.089 198.405L194.336 197.315C195.242 197.243 196.042 197.51 196.735 198.116C197.468 198.722 197.871 199.477 197.944 200.383L197.959 200.797C198.032 201.703 197.764 202.503 197.158 203.197C196.551 203.89 195.795 204.273 194.889 204.346L179.938 205.425C179.623 205.436 179.471 205.62 179.484 205.975L180.905 217.299C180.918 217.654 181.102 217.825 181.457 217.812L197.413 216.696C198.319 216.624 199.119 216.891 199.813 217.497C200.546 218.103 200.949 218.858 201.021 219.764L201.036 220.178C201.109 221.084 200.842 221.884 200.235 222.578C199.628 223.271 198.872 223.654 197.966 223.727L182.305 224.832C182.029 224.842 181.898 225.024 181.911 225.379L183.185 235.938C183.297 236.843 183.049 237.642 182.443 238.336C181.877 239.067 181.142 239.489 180.237 239.601L178.644 239.778C177.74 239.89 176.921 239.643 176.188 239.038C175.456 238.472 175.034 237.737 174.922 236.832L173.578 225.98C173.567 225.664 173.383 225.513 173.028 225.526L155.829 226.687ZM254.553 189.726C255.503 189.77 256.306 190.116 256.961 190.764C257.615 191.372 257.94 192.15 257.935 193.098C257.871 206.491 255.291 216.441 250.196 222.946C245.139 229.412 236.667 233.75 224.779 235.961C223.877 236.152 223.041 235.965 222.27 235.401C221.5 234.876 221 234.144 220.768 233.204L220.564 232.501C220.375 231.639 220.523 230.823 221.008 230.055C221.494 229.287 222.187 228.807 223.089 228.616C228.187 227.601 232.384 226.263 235.681 224.602C239.017 222.94 241.76 220.707 243.909 217.903C246.097 215.058 247.651 211.663 248.574 207.719C249.535 203.734 250.027 198.818 250.05 192.971C250.057 192.063 250.384 191.28 251.031 190.625C251.679 189.969 252.457 189.645 253.366 189.651L254.553 189.726ZM214.442 210.861C213.537 207.694 212.231 203.318 210.527 197.732C210.258 196.873 210.327 196.041 210.732 195.236C211.176 194.429 211.849 193.911 212.749 193.681L213.687 193.41C214.587 193.179 215.44 193.286 216.246 193.731C217.092 194.174 217.669 194.844 217.979 195.742C218.957 198.747 220.302 203.122 222.013 208.866C222.282 209.765 222.195 210.617 221.75 211.424C221.304 212.19 220.631 212.689 219.731 212.919L218.616 213.197C217.716 213.427 216.843 213.321 215.997 212.878C215.191 212.433 214.673 211.761 214.442 210.861ZM234.72 211.247C233.82 211.477 232.967 211.37 232.16 210.925C231.353 210.441 230.814 209.75 230.544 208.851C229.28 204.513 227.909 199.961 226.432 195.196C226.163 194.337 226.232 193.505 226.637 192.7C227.081 191.894 227.754 191.376 228.654 191.145L229.769 190.867C230.669 190.637 231.542 190.744 232.388 191.187C233.234 191.63 233.791 192.301 234.061 193.199C235.314 197.222 236.686 201.794 238.176 206.914C238.444 207.773 238.336 208.606 237.852 209.414C237.408 210.22 236.735 210.738 235.835 210.969L234.72 211.247ZM268.411 223.645L268.204 222.823C267.935 221.963 268.023 221.131 268.468 220.324C268.952 219.517 269.643 218.978 270.542 218.708C285.823 214.24 297.2 207.762 304.672 199.273C304.749 199.231 304.747 199.172 304.665 199.095C304.621 198.979 304.56 198.922 304.481 198.924L273.712 200.047C272.805 200.08 272.004 199.774 271.309 199.128C270.614 198.482 270.25 197.705 270.216 196.798L270.201 196.383C270.168 195.476 270.475 194.695 271.123 194.039C271.769 193.344 272.546 192.98 273.453 192.947L287.122 192.448C287.477 192.435 287.648 192.251 287.635 191.896L287.473 187.458C287.44 186.551 287.727 185.77 288.335 185.116C288.981 184.421 289.758 184.057 290.665 184.024L292.263 183.965C293.17 183.932 293.972 184.239 294.667 184.885C295.36 185.492 295.724 186.249 295.757 187.156L295.919 191.594C295.932 191.949 296.096 192.12 296.412 192.109L311.086 191.573C311.993 191.54 312.794 191.847 313.49 192.493C314.183 193.1 314.547 193.857 314.58 194.764L314.595 195.178C314.683 197.584 314.126 199.639 312.924 201.342C310.523 204.826 307.538 207.997 303.969 210.852C303.7 211.06 303.686 211.238 303.929 211.387C307.329 213.633 311.238 216.295 315.655 219.373C316.425 219.898 316.866 220.612 316.978 221.517C317.129 222.42 316.922 223.237 316.356 223.969L315.731 224.702C315.166 225.434 314.412 225.876 313.469 226.029C312.566 226.181 311.73 225.994 310.96 225.469C307.312 222.916 302.898 219.937 297.718 216.532C297.557 216.458 297.331 216.23 297.041 215.845C296.92 215.771 296.84 215.754 296.802 215.795C296.764 215.836 296.747 215.915 296.751 216.034C296.753 216.073 296.756 216.152 296.76 216.27C296.804 216.387 296.827 216.485 296.83 216.564L297.385 231.771C297.418 232.678 297.111 233.46 296.463 234.115C295.817 234.81 295.04 235.174 294.133 235.208L292.535 235.266C291.628 235.299 290.827 234.992 290.132 234.346C289.478 233.738 289.134 232.98 289.101 232.073L288.684 220.653C288.671 220.298 288.51 220.205 288.2 220.375C283.693 222.435 278.508 224.303 272.644 225.979C271.745 226.248 270.873 226.162 270.028 225.719C269.22 225.234 268.681 224.543 268.411 223.645ZM337.061 184.108C337.969 184.075 338.75 184.382 339.406 185.03C340.099 185.636 340.463 186.393 340.496 187.301L340.729 193.691C340.742 194.046 340.926 194.217 341.281 194.204L355.837 193.673C356.192 193.66 356.363 193.476 356.35 193.121L356.117 186.731C356.084 185.823 356.371 185.043 356.979 184.388C357.626 183.693 358.402 183.329 359.31 183.296L360.256 183.262C360.572 183.25 360.823 183.103 361.01 182.819C361.309 182.334 361.671 181.985 362.098 181.772C362.873 181.349 363.659 181.261 364.458 181.508C365.297 181.754 365.947 182.264 366.41 183.037C366.581 183.386 366.857 183.909 367.238 184.607C367.617 185.264 367.912 185.767 368.122 186.115C368.544 186.85 368.632 187.637 368.386 188.475C368.139 189.274 367.647 189.865 366.91 190.247C366.174 190.63 365.467 190.734 364.789 190.562C364.47 190.494 364.317 190.618 364.328 190.934L364.397 192.827C364.41 193.182 364.594 193.353 364.949 193.341L372.109 193.079C373.016 193.046 373.818 193.353 374.513 193.999C375.208 194.645 375.572 195.422 375.605 196.329L375.618 196.684C375.651 197.591 375.345 198.392 374.698 199.087C374.052 199.783 373.276 200.147 372.368 200.18L365.209 200.441C364.853 200.454 364.682 200.618 364.693 200.934L364.79 203.597C365.119 212.591 363.409 219.328 359.662 223.81C355.915 228.292 349.428 231.294 340.202 232.815C339.259 232.968 338.383 232.763 337.572 232.2C336.802 231.675 336.302 230.943 336.07 230.004L335.932 229.475C335.743 228.613 335.891 227.818 336.378 227.089C336.864 226.321 337.558 225.861 338.461 225.71C345.802 224.454 350.739 222.279 353.272 219.185C355.844 216.05 357.001 210.951 356.743 203.89L356.646 201.228C356.634 200.912 356.451 200.761 356.096 200.774L341.54 201.305C341.185 201.318 341.013 201.482 341.025 201.798L341.316 209.786C341.349 210.693 341.043 211.494 340.397 212.189C339.79 212.883 339.033 213.246 338.126 213.279L337.12 213.316C336.213 213.349 335.411 213.043 334.716 212.397C334.021 211.75 333.657 210.974 333.624 210.066L333.333 202.078C333.321 201.763 333.157 201.611 332.842 201.622L327.398 201.821C326.491 201.854 325.69 201.547 324.995 200.901C324.339 200.254 323.995 199.476 323.962 198.569L323.949 198.214C323.915 197.307 324.202 196.506 324.809 195.813C325.455 195.118 326.232 194.753 327.139 194.72L332.583 194.522C332.898 194.51 333.05 194.327 333.037 193.972L332.804 187.581C332.77 186.674 333.078 185.893 333.725 185.237C334.371 184.542 335.148 184.178 336.055 184.145L337.061 184.108ZM374.925 180.949C375.137 181.336 375.434 181.898 375.816 182.634C376.238 183.37 376.534 183.892 376.703 184.202C377.126 184.976 377.214 185.763 376.967 186.562C376.719 187.361 376.208 187.972 375.434 188.396C374.659 188.819 373.853 188.908 373.014 188.662C372.215 188.414 371.585 187.904 371.122 187.131C370.741 186.434 370.13 185.39 369.289 183.998C368.866 183.224 368.758 182.438 368.966 181.64C369.212 180.802 369.722 180.171 370.497 179.748C371.271 179.324 372.098 179.235 372.976 179.479C373.853 179.724 374.503 180.214 374.925 180.949ZM412.299 229.296C411.393 229.368 410.592 229.081 409.897 228.435C409.242 227.788 408.897 227.01 408.864 226.103L407.402 186.044C407.369 185.137 407.676 184.355 408.324 183.7C408.97 183.005 409.747 182.64 410.654 182.607L412.133 182.553C413.041 182.52 413.842 182.827 414.537 183.473C415.231 184.08 415.594 184.837 415.627 185.744L416.893 220.418C416.904 220.734 417.066 220.846 417.379 220.756C420.62 219.729 423.121 217.9 424.881 215.268C426.64 212.597 427.809 208.901 428.387 204.179C428.512 203.266 428.939 202.52 429.668 201.94C430.397 201.36 431.198 201.114 432.07 201.201L432.903 201.289C433.814 201.374 434.58 201.78 435.199 202.508C435.817 203.197 436.063 203.998 435.938 204.911C434.276 219.981 426.396 228.11 412.299 229.296ZM385.118 228.095L384.37 227.056C383.867 226.284 383.7 225.481 383.867 224.645C384.072 223.769 384.56 223.079 385.332 222.577C388.455 220.488 390.427 217.71 391.249 214.244C392.07 210.777 392.314 204.468 391.98 195.317L391.663 186.618C391.63 185.711 391.917 184.93 392.525 184.276C393.171 183.581 393.948 183.217 394.855 183.184L396.276 183.132C397.183 183.099 397.964 183.406 398.62 184.054C399.314 184.66 399.677 185.417 399.71 186.325L400.028 195.023C400.292 202.281 400.148 208.053 399.593 212.34C399.037 216.587 398.015 219.981 396.528 222.524C395.041 225.067 392.85 227.26 389.954 229.104C389.143 229.607 388.28 229.757 387.364 229.554C386.449 229.39 385.701 228.903 385.118 228.095ZM467.891 228.096C460.593 228.363 455.045 227.341 451.248 225.03C447.451 222.72 445.466 219.217 445.295 214.523C445.108 209.395 447.997 204.688 453.963 200.402C454.193 200.196 454.283 199.955 454.233 199.681L454.227 199.503C452.496 193.207 451.179 187.962 450.275 183.768C450.085 182.867 450.232 182.032 450.717 181.264C451.241 180.455 451.953 179.955 452.855 179.764L454.325 179.473C455.227 179.282 456.063 179.449 456.832 179.974C457.602 180.499 458.102 181.212 458.332 182.112C459.37 186.735 460.479 191.158 461.66 195.381C461.754 195.772 461.955 195.883 462.265 195.714C467.509 193.271 473.864 190.985 481.33 188.856C482.23 188.626 483.084 188.753 483.892 189.237C484.698 189.681 485.197 190.355 485.388 191.256L485.525 191.784C485.756 192.684 485.629 193.538 485.145 194.346C484.661 195.154 483.969 195.673 483.069 195.903C473.178 198.713 465.761 201.67 460.818 204.773C455.876 207.876 453.457 210.888 453.564 213.807C453.751 218.935 458.44 221.331 467.632 220.996C472.878 220.804 478.131 220.257 483.391 219.354C484.294 219.203 485.111 219.39 485.841 219.916C486.611 220.441 487.071 221.155 487.223 222.058L487.297 222.47C487.449 223.373 487.242 224.21 486.678 224.981C486.154 225.791 485.441 226.271 484.538 226.422C479.554 227.315 474.005 227.873 467.891 228.096ZM527.561 210.395C523.459 210.545 521.459 212.04 521.563 214.88C521.678 218.036 523.787 219.539 527.889 219.389C529.822 219.319 531.207 218.834 532.043 217.934C532.878 216.995 533.258 215.5 533.183 213.449L533.14 212.265C533.128 211.95 532.961 211.699 532.638 211.513C531.029 210.703 529.336 210.33 527.561 210.395ZM528.488 226.063C524.11 226.222 520.681 225.34 518.201 223.416C515.723 221.532 514.417 218.775 514.285 215.146C514.159 211.714 515.244 208.968 517.539 206.91C519.873 204.85 523.25 203.739 527.668 203.578C529.364 203.516 530.93 203.676 532.366 204.058C532.685 204.125 532.838 204.001 532.826 203.686L532.418 192.502C532.405 192.147 532.221 191.976 531.866 191.989L518.79 192.466C517.882 192.499 517.081 192.193 516.386 191.547C515.691 190.901 515.327 190.124 515.294 189.217C515.261 188.309 515.568 187.528 516.215 186.872C516.862 186.177 517.638 185.813 518.546 185.78L531.622 185.303C531.977 185.29 532.148 185.106 532.135 184.751L531.945 179.544C531.912 178.636 532.219 177.835 532.865 177.14C533.511 176.445 534.288 176.081 535.195 176.048L535.964 176.02C536.872 175.987 537.673 176.293 538.368 176.939C539.063 177.585 539.427 178.362 539.46 179.27L539.65 184.477C539.663 184.832 539.827 185.003 540.143 184.992L545.942 184.78C546.849 184.747 547.65 185.054 548.345 185.7C549.039 186.306 549.402 187.063 549.435 187.971C549.469 188.878 549.162 189.679 548.516 190.374C547.87 191.069 547.093 191.433 546.186 191.467L540.387 191.678C540.071 191.69 539.92 191.873 539.933 192.228L540.503 207.849C540.513 208.125 540.661 208.396 540.948 208.662C542.815 210.056 545.303 212.197 548.41 215.085C549.066 215.733 549.411 216.53 549.446 217.477C549.479 218.384 549.172 219.185 548.526 219.88L548.298 220.126C547.651 220.781 546.873 221.126 545.966 221.159C545.059 221.192 544.257 220.885 543.562 220.239C542.907 219.592 541.986 218.717 540.8 217.615C540.555 217.387 540.399 217.451 540.333 217.809C539.143 223.067 535.194 225.818 528.488 226.063ZM506.76 226.5C505.817 226.653 504.922 226.468 504.073 225.946C503.265 225.462 502.746 224.77 502.516 223.87C500.813 217.257 499.824 210.183 499.549 202.648C499.274 195.114 499.745 187.987 500.961 181.267C501.126 180.352 501.593 179.624 502.363 179.083C503.171 178.5 504.051 178.251 505.002 178.335L505.714 178.368C506.586 178.455 507.292 178.863 507.833 179.594C508.371 180.286 508.558 181.069 508.392 181.944C507.239 188.227 506.796 195.037 507.064 202.374C507.332 209.711 508.27 216.471 509.878 222.654C510.107 223.514 509.978 224.309 509.491 225.038C509.006 225.806 508.331 226.265 507.467 226.415L506.76 226.5Z" fill="#DAC23F"/>
</svg>
